<svg width="40" height="40" viewBox="0 0 40 40" fill="none" xmlns="http://www.w3.org/2000/svg">
<path d="M34.8334 3.33334H5.16671C4.68048 3.33334 4.21416 3.52649 3.87035 3.87031C3.52653 4.21412 3.33337 4.68044 3.33337 5.16667V34.8333C3.33337 35.0741 3.38079 35.3125 3.47293 35.5349C3.56506 35.7574 3.7001 35.9595 3.87035 36.1297C4.04059 36.2999 4.24269 36.435 4.46512 36.5271C4.68755 36.6192 4.92595 36.6667 5.16671 36.6667H21.1334V23.75H16.8V18.75H21.1334V15C21.0436 14.1196 21.1475 13.2302 21.4379 12.3942C21.7283 11.5582 22.198 10.7959 22.8141 10.1607C23.4303 9.52546 24.178 9.03274 25.0047 8.71707C25.8315 8.40139 26.7173 8.27042 27.6 8.33334C28.8973 8.32535 30.1938 8.39213 31.4834 8.53334V13.0333H28.8334C26.7334 13.0333 26.3334 14.0333 26.3334 15.4833V18.7H31.3334L30.6834 23.7H26.3334V36.6667H34.8334C35.0741 36.6667 35.3125 36.6192 35.535 36.5271C35.7574 36.435 35.9595 36.2999 36.1297 36.1297C36.3 35.9595 36.435 35.7574 36.5272 35.5349C36.6193 35.3125 36.6667 35.0741 36.6667 34.8333V5.16667C36.6667 4.92591 36.6193 4.68751 36.5272 4.46508C36.435 4.24265 36.3 4.04055 36.1297 3.87031C35.9595 3.70007 35.7574 3.56502 35.535 3.47289C35.3125 3.38076 35.0741 3.33334 34.8334 3.33334Z" fill="white"/>
</svg>
