<svg width="545" height="77" viewBox="0 0 545 77" fill="none" xmlns="http://www.w3.org/2000/svg">
<g filter="url(#filter0_d_173_83)">
<rect width="538" height="71" fill="black"/>
<rect x="2" y="2" width="534" height="67" stroke="#D39CEF" stroke-width="4"/>
<path d="M65.692 22H92.116V28.372H76.24V39.46C76.24 40.324 76.54 41.068 77.14 41.692C77.764 42.316 78.52 42.628 79.408 42.628H92.116V49H79.408C78.088 49 76.852 48.748 75.7 48.244C74.548 47.74 73.54 47.056 72.676 46.192C71.812 45.328 71.128 44.32 70.624 43.168C70.12 42.016 69.868 40.78 69.868 39.46V28.372H65.692V22ZM101.384 42.628H114.092V49H95.0123V22H101.384V42.628ZM116.985 22H123.357V49H116.985V22ZM126.231 22H148.515V35.5H142.143V28.372H132.603V39.46C132.603 39.892 132.687 40.3 132.855 40.684C133.023 41.068 133.251 41.404 133.539 41.692C133.827 41.98 134.163 42.208 134.547 42.376C134.955 42.544 135.375 42.628 135.807 42.628H148.515V49H135.807C134.487 49 133.239 48.748 132.063 48.244C130.911 47.74 129.903 47.056 129.039 46.192C128.175 45.328 127.491 44.32 126.987 43.168C126.483 42.016 126.231 40.78 126.231 39.46V22ZM166.586 36.256C166.73 37.816 167.054 39.064 167.558 40C168.086 40.912 168.698 41.62 169.394 42.124C170.114 42.604 170.87 42.916 171.662 43.06C172.478 43.204 173.258 43.276 174.002 43.276V49.648C170.306 49.648 167.294 48.688 164.966 46.768C162.638 44.824 161.15 42.088 160.502 38.56C159.854 38.632 159.182 38.668 158.486 38.668H158.09V49H151.754V22H158.09V32.332H158.486C159.662 32.332 160.766 32.116 161.798 31.684C162.83 31.228 163.73 30.616 164.498 29.848C165.266 29.08 165.866 28.18 166.298 27.148C166.754 26.116 166.982 25.012 166.982 23.836V22H173.354V23.836C173.354 25.132 173.186 26.392 172.85 27.616C172.538 28.816 172.082 29.944 171.482 31C170.906 32.056 170.198 33.04 169.358 33.952C168.518 34.84 167.594 35.608 166.586 36.256ZM186.981 22H200.049V28.372H196.701V42.628H200.049V49H186.981V42.628H190.329V28.372H186.981V22ZM202.942 22H222.022V28.372H209.314V31.972H222.022V38.344H209.314V49H202.942V22ZM247.928 34.6C248.912 32.872 249.656 30.964 250.16 28.876C250.664 26.764 250.916 24.472 250.916 22H257.288C257.288 24.592 257.072 26.944 256.64 29.056C256.208 31.144 255.656 33.016 254.984 34.672C254.312 36.304 253.556 37.744 252.716 38.992C251.876 40.216 251.06 41.26 250.268 42.124C248.228 44.308 245.876 46 243.212 47.2C240.572 48.4 237.836 49 235.004 49V42.628C236.516 42.628 237.992 42.376 239.432 41.872C240.896 41.344 242.276 40.6 243.572 39.64C242.228 38.92 241.028 37.984 239.972 36.832C238.916 35.68 238.016 34.36 237.272 32.872C236.528 31.36 235.964 29.692 235.58 27.868C235.196 26.044 235.004 24.088 235.004 22H241.376C241.376 23.656 241.52 25.192 241.808 26.608C242.12 28 242.564 29.248 243.14 30.352C243.716 31.432 244.4 32.344 245.192 33.088C246.008 33.808 246.92 34.312 247.928 34.6ZM274.657 22C275.689 22 276.649 22.204 277.537 22.612C278.449 22.996 279.241 23.524 279.913 24.196C280.585 24.868 281.113 25.66 281.497 26.572C281.881 27.46 282.073 28.408 282.073 29.416V49H267.241C266.209 49 265.237 48.808 264.325 48.424C263.437 48.016 262.657 47.476 261.985 46.804C261.313 46.132 260.785 45.352 260.401 44.464C260.017 43.552 259.825 42.592 259.825 41.584V22H274.657ZM275.701 29.416C275.701 29.128 275.593 28.888 275.377 28.696C275.185 28.48 274.945 28.372 274.657 28.372H266.197V41.584C266.197 41.872 266.293 42.124 266.485 42.34C266.701 42.532 266.953 42.628 267.241 42.628H275.701V29.416ZM301.189 22H307.561V49H293.953C292.753 49 291.625 48.772 290.569 48.316C289.537 47.86 288.625 47.248 287.833 46.48C287.065 45.688 286.453 44.764 285.997 43.708C285.541 42.652 285.313 41.536 285.313 40.36V22H291.685V40.36C291.685 40.984 291.901 41.524 292.333 41.98C292.789 42.412 293.329 42.628 293.953 42.628H301.189V22ZM320.54 22H347V39.46C347 40.78 346.748 42.016 346.244 43.168C345.74 44.32 345.056 45.328 344.192 46.192C343.328 47.056 342.308 47.74 341.132 48.244C339.98 48.748 338.744 49 337.424 49H320.54V42.628H324.716V28.372H320.54V22ZM340.628 28.372H331.088V42.628H337.424C337.856 42.628 338.264 42.544 338.648 42.376C339.056 42.208 339.404 41.98 339.692 41.692C339.98 41.404 340.208 41.068 340.376 40.684C340.544 40.3 340.628 39.892 340.628 39.46V28.372ZM372.179 41.296C372.179 41.656 372.311 41.968 372.575 42.232C372.839 42.496 373.151 42.628 373.511 42.628H374.375V49H373.511C372.479 49 371.507 48.82 370.595 48.46C369.707 48.076 368.915 47.548 368.219 46.876C367.451 47.548 366.587 48.076 365.627 48.46C364.691 48.82 363.683 49 362.603 49H358.391C357.215 49 356.111 48.784 355.079 48.352C354.047 47.896 353.147 47.284 352.379 46.516C351.611 45.748 350.999 44.848 350.543 43.816C350.111 42.784 349.895 41.68 349.895 40.504V31.828H365.807V31.54C365.807 31.108 365.723 30.7 365.555 30.316C365.387 29.932 365.159 29.596 364.871 29.308C364.583 29.02 364.235 28.792 363.827 28.624C363.443 28.456 363.035 28.372 362.603 28.372H350.975V22H362.603C363.923 22 365.159 22.252 366.311 22.756C367.487 23.26 368.507 23.944 369.371 24.808C370.235 25.672 370.919 26.68 371.423 27.832C371.927 28.984 372.179 30.22 372.179 31.54V41.296ZM363.683 42.628C364.259 42.628 364.751 42.424 365.159 42.016C365.591 41.608 365.807 41.104 365.807 40.504V38.2H356.267V40.504C356.267 41.104 356.471 41.608 356.879 42.016C357.311 42.424 357.815 42.628 358.391 42.628H363.683ZM394.095 38.632C395.607 39.856 396.807 41.344 397.695 43.096C398.607 44.848 399.063 46.816 399.063 49H392.691C392.691 47.92 392.487 46.912 392.079 45.976C391.671 45.016 391.107 44.188 390.387 43.492C389.691 42.772 388.863 42.208 387.903 41.8C386.967 41.392 385.959 41.188 384.879 41.188H383.619V49H377.247V22H398.415V30.46C398.415 32.188 398.019 33.76 397.227 35.176C396.435 36.592 395.391 37.744 394.095 38.632ZM383.619 35.176H388.047C388.599 35.176 389.115 35.068 389.595 34.852C390.075 34.636 390.495 34.348 390.855 33.988C391.215 33.628 391.503 33.208 391.719 32.728C391.935 32.248 392.043 31.732 392.043 31.18V28.372H383.619V35.176ZM401.926 22H424.21V28.84C424.21 30.208 423.946 31.492 423.418 32.692C422.914 33.868 422.218 34.9 421.33 35.788C420.442 36.676 419.398 37.384 418.198 37.912C416.998 38.416 415.726 38.668 414.382 38.668H408.298V39.46C408.298 40.324 408.61 41.068 409.234 41.692C409.858 42.316 410.602 42.628 411.466 42.628H424.21V49H411.466C410.146 49 408.91 48.748 407.758 48.244C406.606 47.74 405.598 47.056 404.734 46.192C403.87 45.328 403.186 44.32 402.682 43.168C402.178 42.016 401.926 40.78 401.926 39.46V22ZM408.298 32.692H414.382C414.862 32.692 415.306 32.608 415.714 32.44C416.146 32.248 416.518 31.996 416.83 31.684C417.142 31.348 417.382 30.976 417.55 30.568C417.742 30.136 417.838 29.68 417.838 29.2V28.372H408.298V32.692ZM435.748 51.52H471.748V15.52H435.748V51.52Z" fill="#D39CEF"/>
</g>
<defs>
<filter id="filter0_d_173_83" x="0" y="0" width="545" height="77" filterUnits="userSpaceOnUse" color-interpolation-filters="sRGB">
<feFlood flood-opacity="0" result="BackgroundImageFix"/>
<feColorMatrix in="SourceAlpha" type="matrix" values="0 0 0 0 0 0 0 0 0 0 0 0 0 0 0 0 0 0 127 0" result="hardAlpha"/>
<feOffset dx="7" dy="6"/>
<feComposite in2="hardAlpha" operator="out"/>
<feColorMatrix type="matrix" values="0 0 0 0 0.369839 0 0 0 0 0.0958617 0 0 0 0 0.508654 0 0 0 1 0"/>
<feBlend mode="normal" in2="BackgroundImageFix" result="effect1_dropShadow_173_83"/>
<feBlend mode="normal" in="SourceGraphic" in2="effect1_dropShadow_173_83" result="shape"/>
</filter>
</defs>
</svg>
